/* XPM */
static char * AIRi_32x32_xpm[] = {
"32 32 517 2",
"  	c None",
". 	c #8CA8D9",
"+ 	c #97B0E0",
"@ 	c #A1BAE8",
"# 	c #AAC1EB",
"$ 	c #ABC3EB",
"% 	c #A7C1EA",
"& 	c #9CB8E4",
"* 	c #92AFE0",
"= 	c #90AEE0",
"- 	c #9EB8E5",
"; 	c #ADC3EB",
"> 	c #B6C9ED",
", 	c #B8CBEE",
"' 	c #B9CCED",
") 	c #B9CCEE",
"! 	c #B5CAED",
"~ 	c #ACC3EB",
"{ 	c #9CB7E3",
"] 	c #8DABDF",
"^ 	c #83A3D8",
"/ 	c #92AEE2",
"( 	c #A1BBE8",
"_ 	c #A6BFE9",
": 	c #A2BCE8",
"< 	c #9DB9E7",
"[ 	c #98B4E4",
"} 	c #96B3E3",
"| 	c #95B1E3",
"1 	c #93AEE1",
"2 	c #95B0E2",
"3 	c #9DB7E5",
"4 	c #A4BCE8",
"5 	c #A2BBE9",
"6 	c #91AEE1",
"7 	c #83A2D8",
"8 	c #7E9FDB",
"9 	c #86A6E0",
"0 	c #8DAAE1",
"a 	c #87A5DE",
"b 	c #81A1DC",
"c 	c #82A2DC",
"d 	c #86A5DD",
"e 	c #88A7DD",
"f 	c #87A7DD",
"g 	c #89A8DE",
"h 	c #82A1DB",
"i 	c #7F9EDA",
"j 	c #81A0DC",
"k 	c #88A6DF",
"l 	c #8DABE2",
"m 	c #85A3DD",
"n 	c #7596D6",
"o 	c #7195D8",
"p 	c #7B9CDB",
"q 	c #7A9BDA",
"r 	c #7698DA",
"s 	c #7799D9",
"t 	c #7797D6",
"u 	c #7A98D4",
"v 	c #7D9BD6",
"w 	c #829ED6",
"x 	c #7C97CA",
"y 	c #7D97CB",
"z 	c #84A1D7",
"A 	c #82A1D9",
"B 	c #809FDA",
"C 	c #7A9BD8",
"D 	c #7496D7",
"E 	c #7597D8",
"F 	c #7C9EDC",
"G 	c #7C9EDD",
"H 	c #779ADA",
"I 	c #6688CC",
"J 	c #6B90D6",
"K 	c #6F93D8",
"L 	c #7296DA",
"M 	c #7498D9",
"N 	c #789BD9",
"O 	c #7C9AD6",
"P 	c #7B97D2",
"Q 	c #7591CB",
"R 	c #B1B9C9",
"S 	c #B4BCCA",
"T 	c #7C99CF",
"U 	c #819ED7",
"V 	c #7D9BD7",
"W 	c #7A9AD7",
"X 	c #779AD9",
"Y 	c #7397DA",
"Z 	c #7296D9",
"` 	c #7398DB",
" .	c #7196DA",
"..	c #6D90D0",
"+.	c #668DD5",
"@.	c #6991D8",
"#.	c #6891D7",
"$.	c #6B92D8",
"%.	c #6E93D6",
"&.	c #7395D6",
"*.	c #7797D7",
"=.	c #7696D2",
"-.	c #899CC1",
";.	c #93A0BE",
">.	c #A3ACC0",
",.	c #A3ACBF",
"'.	c #8F9EBD",
").	c #8699C0",
"!.	c #7493D1",
"~.	c #7596D5",
"{.	c #7193D5",
"].	c #6C92D5",
"^.	c #6990D8",
"/.	c #6790D8",
"(.	c #678FD7",
"_.	c #638AD1",
":.	c #5D81C8",
"<.	c #618AD6",
"[.	c #5F88D5",
"}.	c #6189D4",
"|.	c #6389D2",
"1.	c #668AD1",
"2.	c #6A8BD1",
"3.	c #6E8FD1",
"4.	c #7191D2",
"5.	c #A7B4CD",
"6.	c #BFC3CC",
"7.	c #8AA4D9",
"8.	c #88A1D7",
"9.	c #BEC2CB",
"0.	c #A3AFCA",
"a.	c #6988CD",
"b.	c #6A8BCF",
"c.	c #698BD1",
"d.	c #6489D2",
"e.	c #5F86D0",
"f.	c #5B82CF",
"g.	c #5981D0",
"h.	c #5980CA",
"i.	c #5677B8",
"j.	c #5A80C8",
"k.	c #5A82CD",
"l.	c #587FCB",
"m.	c #567CC8",
"n.	c #587CC7",
"o.	c #5C7EC7",
"p.	c #6181C6",
"q.	c #6584C7",
"r.	c #6D8BCA",
"s.	c #7E97CB",
"t.	c #879DCD",
"u.	c #809BD3",
"v.	c #7E9AD2",
"w.	c #879ECD",
"x.	c #7E97CC",
"y.	c #6D8BCB",
"z.	c #6484C7",
"A.	c #5E7FC5",
"B.	c #5A7CC5",
"C.	c #567AC5",
"D.	c #547BC7",
"E.	c #567DC9",
"F.	c #587FCC",
"G.	c #5275B9",
"H.	c #5378C4",
"I.	c #5075C0",
"J.	c #4E72BE",
"K.	c #577AC2",
"L.	c #5B7DC2",
"M.	c #6081C3",
"N.	c #6483C4",
"O.	c #6784C4",
"P.	c #6A86C4",
"Q.	c #6783C0",
"R.	c #6580B8",
"S.	c #6681BA",
"T.	c #6B88C4",
"U.	c #6F8CCA",
"V.	c #6A89C7",
"W.	c #6584C6",
"X.	c #5E7FC2",
"Y.	c #597BC2",
"Z.	c #557AC1",
"`.	c #557AC3",
" +	c #577CC5",
".+	c #567CC5",
"++	c #567BC5",
"@+	c #5071B4",
"#+	c #4565A8",
"$+	c #496BB6",
"%+	c #4B6DB7",
"&+	c #4E71BA",
"*+	c #5074BC",
"=+	c #5578BE",
"-+	c #587ABE",
";+	c #5C7DBF",
">+	c #6180C1",
",+	c #6583C2",
"'+	c #5E7BB6",
")+	c #8997B6",
"!+	c #B1B7C5",
"~+	c #B2B8C6",
"{+	c #8C9AB8",
"]+	c #5F7BB6",
"^+	c #6382C1",
"/+	c #5F7FC0",
"(+	c #5A7ABE",
"_+	c #5778BD",
":+	c #5276BC",
"<+	c #5075BC",
"[+	c #5176BD",
"}+	c #4F72BB",
"|+	c #4A6DB6",
"1+	c #496AB1",
"2+	c #405E9F",
"3+	c #486BB3",
"4+	c #4B6EB4",
"5+	c #4C6EB5",
"6+	c #4C6EB4",
"7+	c #4E6FB6",
"8+	c #5273B8",
"9+	c #5474B7",
"0+	c #5979BB",
"a+	c #5B7ABB",
"b+	c #5B6B8E",
"c+	c #818387",
"d+	c #878786",
"e+	c #808286",
"f+	c #586788",
"g+	c #5372B4",
"h+	c #5574B8",
"i+	c #5373B8",
"j+	c #5071B7",
"k+	c #4E70B7",
"l+	c #486AB2",
"m+	c #4567AF",
"n+	c #4465AE",
"o+	c #4466AE",
"p+	c #4564A7",
"q+	c #4262A3",
"r+	c #4567AE",
"s+	c #4668AE",
"t+	c #4769AF",
"u+	c #4466AC",
"v+	c #4263AB",
"w+	c #4261A9",
"x+	c #4665AB",
"y+	c #4A69AD",
"z+	c #5475BA",
"A+	c #293144",
"B+	c #1C1C1B",
"C+	c #1E1E1E",
"D+	c #1B1B1A",
"E+	c #20283B",
"F+	c #4F6EB5",
"G+	c #4968AD",
"H+	c #4464AB",
"I+	c #4262AA",
"J+	c #3E5FA8",
"K+	c #3E5FA7",
"L+	c #4467AD",
"M+	c #405E9C",
"N+	c #3D5E9E",
"O+	c #3F60A7",
"P+	c #3C5EA5",
"Q+	c #3859A1",
"R+	c #3859A2",
"S+	c #395AA2",
"T+	c #3C5DA4",
"U+	c #3D5EA5",
"V+	c #4060A6",
"W+	c #4869B2",
"X+	c #131E31",
"Y+	c #000000",
"Z+	c #141D2F",
"`+	c #4D6FB7",
" @	c #4262A8",
".@	c #3C5CA4",
"+@	c #3A5BA3",
"@@	c #3758A0",
"#@	c #3C5EA6",
"$@	c #3E61A6",
"%@	c #3F61A7",
"&@	c #3B5A96",
"*@	c #33508E",
"=@	c #32539B",
"-@	c #305199",
";@	c #35569E",
">@	c #385BA1",
",@	c #3B5EA2",
"'@	c #3D5FA4",
")@	c #4365AC",
"!@	c #2D3E65",
"~@	c #07080C",
"{@	c #06070A",
"]@	c #2D3E5F",
"^@	c #486BB1",
"/@	c #3B5EA3",
"(@	c #395BA1",
"_@	c #395CA2",
":@	c #3A5CA2",
"<@	c #395A9F",
"[@	c #37589E",
"}@	c #304B89",
"|@	c #294381",
"1@	c #2D4D94",
"2@	c #2E4F95",
"3@	c #315399",
"4@	c #34569B",
"5@	c #34579D",
"6@	c #33569C",
"7@	c #35579C",
"8@	c #37599F",
"9@	c #4A6AAB",
"0@	c #30405F",
"a@	c #1A2131",
"b@	c #192030",
"c@	c #2B3959",
"d@	c #4563A4",
"e@	c #35579D",
"f@	c #35569D",
"g@	c #34569D",
"h@	c #34579C",
"i@	c #33559B",
"j@	c #305297",
"k@	c #2E4E95",
"l@	c #2B4A91",
"m@	c #2B4B91",
"n@	c #274482",
"o@	c #2C4E92",
"p@	c #2E4E92",
"q@	c #2D4F93",
"r@	c #2D4E93",
"s@	c #2B4D93",
"t@	c #2A4C93",
"u@	c #2C4F95",
"v@	c #2E5097",
"w@	c #325399",
"x@	c #3F61A6",
"y@	c #4D6DAF",
"z@	c #4A6AAD",
"A@	c #3B5BA2",
"B@	c #294B93",
"C@	c #274890",
"D@	c #2C4D95",
"E@	c #2C4D94",
"F@	c #2B4C93",
"G@	c #28488F",
"H@	c #26468C",
"I@	c #26458B",
"J@	c #28488E",
"K@	c #284581",
"L@	c #243F75",
"M@	c #264687",
"N@	c #26468A",
"O@	c #244589",
"P@	c #214187",
"Q@	c #214189",
"R@	c #1F4088",
"S@	c #20418A",
"T@	c #22428B",
"U@	c #23448D",
"V@	c #25478F",
"W@	c #274990",
"X@	c #284B92",
"Y@	c #274A92",
"Z@	c #284A92",
"`@	c #26488F",
" #	c #25478D",
".#	c #23438C",
"+#	c #21418A",
"@#	c #1F3E86",
"##	c #204087",
"$#	c #224287",
"%#	c #254589",
"&#	c #264584",
"*#	c #233E74",
"=#	c #1D3B7B",
"-#	c #1B3B80",
";#	c #1A397E",
">#	c #1A397F",
",#	c #1E3E83",
"'#	c #204086",
")#	c #204188",
"!#	c #1D3D86",
"~#	c #1C3C86",
"{#	c #1E3E87",
"]#	c #15367D",
"^#	c #18397F",
"/#	c #25478C",
"(#	c #24468C",
"_#	c #22448A",
":#	c #1F4187",
"<#	c #1E3E84",
"[#	c #204186",
"}#	c #204085",
"|#	c #204184",
"1#	c #224385",
"2#	c #213E7A",
"3#	c #14306D",
"4#	c #163477",
"5#	c #1B3B7D",
"6#	c #1C3C7F",
"7#	c #1D3E81",
"8#	c #1E3F82",
"9#	c #1E3F84",
"0#	c #1D3F84",
"a#	c #1D3F85",
"b#	c #1D3F86",
"c#	c #12327B",
"d#	c #7C88A4",
"e#	c #7D8AA6",
"f#	c #11327A",
"g#	c #1E4087",
"h#	c #1E4186",
"i#	c #1E4084",
"j#	c #1D3E83",
"k#	c #1C3D80",
"l#	c #1D3D7F",
"m#	c #1B3A79",
"n#	c #163067",
"o#	c #163471",
"p#	c #173778",
"q#	c #18387A",
"r#	c #19397B",
"s#	c #19397C",
"t#	c #17387C",
"u#	c #18397E",
"v#	c #193A7E",
"w#	c #193A7F",
"x#	c #163A80",
"y#	c #848DA1",
"z#	c #848C9E",
"A#	c #10327B",
"B#	c #103178",
"C#	c #133379",
"D#	c #16377B",
"E#	c #18387C",
"F#	c #18387B",
"G#	c #183879",
"H#	c #173679",
"I#	c #133174",
"J#	c #102D6E",
"K#	c #123170",
"L#	c #123173",
"M#	c #0E2D70",
"N#	c #0D2B70",
"O#	c #0B2C70",
"P#	c #0E2D72",
"Q#	c #113175",
"R#	c #123477",
"S#	c #16367A",
"T#	c #284685",
"U#	c #274585",
"V#	c #153579",
"W#	c #0E2D73",
"X#	c #0C2B71",
"Y#	c #0C2B70",
"Z#	c #0D2C71",
"`#	c #0D2C70",
" $	c #0D2B6F",
".$	c #0C2A6D",
"+$	c #0B2867",
"@$	c #0B255F",
"#$	c #082565",
"$$	c #09276A",
"%$	c #082669",
"&$	c #09286B",
"*$	c #08266B",
"=$	c #08276B",
"-$	c #09276C",
";$	c #0C2C6F",
">$	c #0E2F72",
",$	c #0F3073",
"'$	c #0F3071",
")$	c #0B2A6D",
"!$	c #082668",
"~$	c #0D2454",
"{$	c #0C2760",
"]$	c #0F2A64",
"^$	c #0E2B66",
"/$	c #0D2A65",
"($	c #0C2764",
"_$	c #092563",
":$	c #072361",
"<$	c #082563",
"[$	c #0B2966",
"}$	c #0D2A67",
"|$	c #0F2B67",
"1$	c #0F2C67",
"2$	c #0F2C68",
"3$	c #0E2963",
"4$	c #0E2960",
"5$	c #0E214A",
"6$	c #102552",
"7$	c #102756",
"8$	c #102859",
"9$	c #102758",
"0$	c #0D2456",
"a$	c #0B2355",
"b$	c #0A2053",
"c$	c #0A2154",
"d$	c #0D2356",
"e$	c #0F2657",
"f$	c #112655",
"g$	c #0F234F",
"h$	c #0D1F47",
"i$	c #0E1D3C",
"j$	c #0F2043",
"k$	c #0F1F42",
"l$	c #112247",
"m$	c #112248",
"n$	c #102146",
"o$	c #0D1E43",
"p$	c #09183C",
"q$	c #0B1A3D",
"r$	c #101F43",
"                                                                ",
"                                                                ",
"                                                                ",
"                        . + @ # $ % & *                         ",
"                    = - ; > , ' ) , ! ~ { ]                     ",
"                ^ / ( _ : < [ } | 1 2 3 4 5 6 7                 ",
"              8 9 0 a b c d e f g d h i j k l m n               ",
"            o p q r s t u v w x y z A B C D E F G H             ",
"          I J K L M N C O P Q R S T U V W X Y Z `  ...          ",
"          +.@.#.$.%.&.*.=.-.;.>.,.'.).!.~.{.].^./.(._.          ",
"        :.<.[.}.|.1.2.3.4.5.6.7.8.9.0.a.b.c.d.e.f.g.g.h.        ",
"      i.j.k.l.m.n.o.p.q.r.s.t.u.v.w.x.y.z.A.B.C.D.E.F.j.        ",
"      G.H.I.J.I.K.L.M.N.O.P.Q.R.S.T.U.V.W.X.Y.Z.`. +.+++@+      ",
"      #+$+%+&+*+=+-+;+>+,+'+)+!+~+{+]+^+/+(+_+:+<+[+}+|+1+      ",
"      2+3+4+5+6+7+8+9+0+a+b+c+d+d+e+f+g+h+i+j+k+l+m+n+o+p+      ",
"      q+r+s+t+u+v+w+x+y+z+A+B+C+C+D+E+F+G+H+I+J+K+K+v+L+M+      ",
"      N+O+P+Q+R+S+T+U+V+W+X+Y+Y+Y+Y+Z+`+ @.@+@@@#@$@%@O+&@      ",
"      *@=@-@=@;@>@,@'@U+)@!@~@Y+Y+{@]@^@'@/@(@_@:@(@<@[@}@      ",
"      |@1@2@3@4@5@6@7@[@8@9@0@a@b@c@d@e@f@e@g@h@i@j@k@l@m@      ",
"      n@o@p@q@r@s@t@t@u@v@w@x@y@z@A@B@C@B@D@E@F@G@H@I@J@K@      ",
"      L@M@N@O@P@Q@R@S@T@U@V@W@X@Y@Z@`@ #.#+#R@@###$#%#&#*#      ",
"        =#-#;#>#,#'#)#R@!#~#{#]#^#/#(#(#_#:#<#[#}#|#1#2#        ",
"        3#4#5#6#7#8#9#0#a#b#c#d#e#f#g#h#i#9#j#k#l#l#m#n#        ",
"          o#p#q#r#s#t#u#v#w#x#y#z#A#B#C#D#E#F#G#H#I#J#          ",
"            K#L#M#N#O#P#Q#R#S#T#U#V#W#X#Y#Z#`# $.$+$            ",
"            @$#$$$%$&$*$=$-$;$>$>$,$'$M#)$$$%$!$+$~$            ",
"                {$]$^$/$($_$:$<$[$}$|$1$2$|$3$4$                ",
"                  5$6$7$8$9$0$a$b$c$d$e$f$g$h$                  ",
"                      i$j$k$l$m$n$o$p$q$r$                      ",
"                                                                ",
"                                                                ",
"                                                                "};
