/* XPM */
static char * AIRi_16x16_xpm[] = {
"16 16 141 2",
"  	c None",
". 	c #8CA7D9",
"+ 	c #A3BCE9",
"@ 	c #A7C1EA",
"# 	c #92B0E0",
"$ 	c #88A6DB",
"% 	c #9EB8E5",
"& 	c #ACC3EB",
"* 	c #A9C1E9",
"= 	c #A7BEE8",
"- 	c #A8BFE9",
"; 	c #9CB7E5",
"> 	c #88A6DA",
", 	c #789AD9",
"' 	c #81A1DD",
") 	c #7B9BD9",
"! 	c #7D9CD8",
"~ 	c #819FD6",
"{ 	c #829FD7",
"] 	c #7F9ED9",
"^ 	c #7799D9",
"/ 	c #668ACF",
"( 	c #6A91D7",
"_ 	c #6F95D8",
": 	c #7799D8",
"< 	c #7C98CE",
"[ 	c #97A5C2",
"} 	c #99A7C3",
"| 	c #7D98CF",
"1 	c #7698D6",
"2 	c #6E93D8",
"3 	c #6D94DA",
"4 	c #698DCF",
"5 	c #5D84CD",
"6 	c #5B82CF",
"7 	c #5E82CC",
"8 	c #6687CB",
"9 	c #819ACD",
"0 	c #97ABD3",
"a 	c #96A9D2",
"b 	c #7D96CB",
"c 	c #6485CA",
"d 	c #5C80CA",
"e 	c #567DCB",
"f 	c #5880CB",
"g 	c #4B6CAF",
"h 	c #4D70BC",
"i 	c #4E72BC",
"j 	c #587AC0",
"k 	c #6080C2",
"l 	c #6381C1",
"m 	c #8295BE",
"n 	c #8598C1",
"o 	c #6584C3",
"p 	c #5F7FC1",
"q 	c #5578BF",
"r 	c #5479C0",
"s 	c #5176BF",
"t 	c #4C6DB1",
"u 	c #405E9E",
"v 	c #486BB1",
"w 	c #496BB1",
"x 	c #4869B0",
"y 	c #4F6EB2",
"z 	c #4C6393",
"A 	c #51504E",
"B 	c #455A8A",
"C 	c #4D6CB1",
"D 	c #4768B0",
"E 	c #4162AA",
"F 	c #4365AD",
"G 	c #42609F",
"H 	c #385795",
"I 	c #3758A0",
"J 	c #34559E",
"K 	c #395CA2",
"L 	c #3D5EA4",
"M 	c #334B7F",
"N 	c #000000",
"O 	c #374F80",
"P 	c #3C5EA3",
"Q 	c #385AA1",
"R 	c #3B5EA4",
"S 	c #3C5DA4",
"T 	c #34508C",
"U 	c #26417F",
"V 	c #2D4E94",
"W 	c #305297",
"X 	c #2F5198",
"Y 	c #305298",
"Z 	c #394F7D",
"` 	c #354A79",
" .	c #32549C",
"..	c #2C4D93",
"+.	c #29488F",
"@.	c #294889",
"#.	c #214083",
"$.	c #1D3C82",
"%.	c #1F3F86",
"&.	c #1F4089",
"*.	c #1F3F89",
"=.	c #1B3E87",
"-.	c #1E4189",
";.	c #25478D",
">.	c #204189",
",.	c #1E3E85",
"'.	c #204085",
").	c #244384",
"!.	c #14316F",
"~.	c #1A3A7C",
"{.	c #1C3C7F",
"].	c #1A3C81",
"^.	c #1C3D82",
"/.	c #4F6491",
"(.	c #4D628F",
"_.	c #18397F",
":.	c #1B3C80",
"<.	c #1A3B7E",
"[.	c #19387B",
"}.	c #14306D",
"|.	c #0D2A68",
"1.	c #09286C",
"2.	c #09286D",
"3.	c #0C2C70",
"4.	c #133478",
"5.	c #0D2C71",
"6.	c #0A286D",
"7.	c #09276B",
"8.	c #0B2662",
"9.	c #0D2558",
"0.	c #0F285D",
"a.	c #0D275F",
"b.	c #08235B",
"c.	c #0A245D",
"d.	c #0E285F",
"e.	c #0F285C",
"f.	c #0E2557",
"g.	c #0E1E3F",
"h.	c #112246",
"i.	c #0F1F43",
"j.	c #081638",
"                                ",
"            . + @ #             ",
"        $ % & * = - ; >         ",
"      , ' ) ! ~ { ] ) ' ^       ",
"    / ( _ : < [ } | 1 2 3 4     ",
"    5 6 7 8 9 0 a b c d e f     ",
"  g h i j k l m n o p q r s t   ",
"  u v w x y z A A B C D E F G   ",
"  H I J K L M N N O P Q R S T   ",
"  U V W X Y K Z `  .X Y ..+.@.  ",
"    #.$.%.&.*.=.-.;.>.,.'.).    ",
"    !.~.{.].^./.(._.:.<.[.}.    ",
"      |.1.2.3.4.4.5.6.7.8.      ",
"        9.0.a.b.c.d.e.f.        ",
"            g.h.i.j.            ",
"                                "};
